# xmcd
#
# Track frame offsets: 
#        150
#        13027
#        28970
#        46372
#        62877
#        81255
#        91852
#        108927
#        120725
#        136097
#        148990
#        166827
#
# Disc length: 2365 seconds
#
# Revision: 0
# Processed by: cddbd v1.5.2PL0 Copyright (c) Steve Scherf et al.
# Submitted via: ExactAudioCopy v0.95a4
#
DISCID=a1093b0c
DTITLE=Various Artist - Bluegrass Tribute To Vince Gill
DYEAR=2006
DGENRE=Bluegrass
TTITLE0=High Lonesome Sound
TTITLE1=I Never Knew Lonely
TTITLE2=When I Call You Name
TTITLE3=Don't Let Our Love Start Slippin' Away
TTITLE4=Go Rest High on That Mountain
TTITLE5=Liza Jane
TTITLE6=Pocket Full of Gold
TTITLE7=Oklahoma Borderline
TTITLE8=No Future in the Past
TTITLE9=One More Last Chance
TTITLE10=Look at Us
TTITLE11=What the Cowgirls Do
EXTD=
EXTT0=
EXTT1=
EXTT2=
EXTT3=
EXTT4=
EXTT5=
EXTT6=
EXTT7=
EXTT8=
EXTT9=
EXTT10=
EXTT11=
PLAYORDER=
